<svg xmlns="http://www.w3.org/2000/svg" version="1.1" xmlns:xlink="http://www.w3.org/1999/xlink" xmlns:svgjs="http://svgjs.com/svgjs" width="1440" height="600" preserveAspectRatio="none" viewBox="0 0 1440 600">
    <g mask="url(&quot;#SvgjsMask1069&quot;)" fill="none">
        <rect width="1440" height="600" x="0" y="0" fill="rgba(117, 122, 127, 1)"></rect>
        <path d="M8 600L608 0L920 0L320 600z" fill="url(#SvgjsLinearGradient1070)"></path>
        <path d="M528.2 600L1128.2 0L1312.7 0L712.7 600z" fill="url(#SvgjsLinearGradient1070)"></path>
        <path d="M1407 600L807 0L163.5 0L763.5 600z" fill="url(#SvgjsLinearGradient1071)"></path>
        <path d="M925.8 600L325.79999999999995 0L130.79999999999995 0L730.8 600z" fill="url(#SvgjsLinearGradient1071)"></path>
        <path d="M1037.0265249479166 600L1440 197.02652494791664L1440 600z" fill="url(#SvgjsLinearGradient1070)"></path>
        <path d="M0 600L402.97347505208336 600L 0 197.02652494791664z" fill="url(#SvgjsLinearGradient1071)"></path>
    </g>
    <defs>
        <mask id="SvgjsMask1069">
            <rect width="1440" height="600" fill="#ffffff"></rect>
        </mask>
        <linearGradient x1="0%" y1="100%" x2="100%" y2="0%" id="SvgjsLinearGradient1070">
            <stop stop-color="rgba(3, 3, 3, 0.96)" offset="0"></stop>
            <stop stop-opacity="0" stop-color="rgba(3, 3, 3, 0.96)" offset="0.66"></stop>
        </linearGradient>
        <linearGradient x1="100%" y1="100%" x2="0%" y2="0%" id="SvgjsLinearGradient1071">
            <stop stop-color="rgba(3, 3, 3, 0.96)" offset="0"></stop>
            <stop stop-opacity="0" stop-color="rgba(3, 3, 3, 0.96)" offset="0.66"></stop>
        </linearGradient>
    </defs>
</svg>